<?xml version="1.0" encoding="utf-8"?>
<!-- Generator: Adobe Illustrator 21.1.0, SVG Export Plug-In . SVG Version: 6.00 Build 0)  -->
<svg version="1.0" id="레이어_1" xmlns="http://www.w3.org/2000/svg" xmlns:xlink="http://www.w3.org/1999/xlink" x="0px"
	 y="0px" viewBox="0 0 120 120" enable-background="new 0 0 120 120" xml:space="preserve">
<g>
	<path fill="#888888" d="M61.25,15.726c-0.235-0.259-0.345-0.561-0.328-0.905c0.017-0.345,0.154-0.637,0.413-0.875
		s0.561-0.35,0.905-0.333c0.346,0.017,0.633,0.156,0.865,0.417c0.23,0.262,0.338,0.565,0.322,0.91
		c-0.016,0.345-0.152,0.635-0.408,0.871c-0.256,0.235-0.555,0.344-0.9,0.328C61.775,16.122,61.484,15.985,61.25,15.726z"/>
	<path fill="#888888" d="M77.058,19.449c-0.033,0.105-0.196,0.397-0.488,0.877c-0.291,0.48-0.476,0.725-0.553,0.736
		c-0.835,0.106-1.858-0.035-3.069-0.423c-1.103-0.353-1.917-1.045-2.442-2.076c-0.526-1.031-0.616-2.086-0.271-3.166
		c0.366-1.145,1.077-1.999,2.133-2.562c1.056-0.564,2.164-0.66,3.325-0.288c0.943,0.302,1.894,0.727,2.852,1.273
		c0.022,0.016-0.037,0.288-0.179,0.816c-0.142,0.528-0.233,0.856-0.274,0.985c-0.038,0.121-0.158,0.149-0.358,0.085
		c-0.05-0.016-0.104-0.051-0.16-0.104c0.013-0.156,0-0.324-0.038-0.505c-0.039-0.181-0.115-0.396-0.229-0.646
		c-0.113-0.25-0.321-0.492-0.623-0.726c-0.303-0.235-0.68-0.424-1.13-0.569c-0.819-0.262-1.561-0.14-2.225,0.367
		s-1.143,1.216-1.434,2.126c-0.326,1.016-0.345,1.958-0.057,2.828c0.287,0.87,0.898,1.455,1.834,1.754
		c0.743,0.238,1.404,0.201,1.983-0.111c0.145-0.078,0.291-0.197,0.439-0.359c0.148-0.161,0.267-0.299,0.354-0.413
		s0.139-0.169,0.156-0.164C76.896,19.277,77.048,19.366,77.058,19.449z"/>
	<path fill="#888888" d="M80.034,22.243c-0.255-1.147-0.068-2.224,0.56-3.229c0.629-1.004,1.516-1.645,2.661-1.922
		c1.145-0.277,2.208-0.108,3.189,0.505c0.982,0.614,1.601,1.497,1.856,2.65c0.257,1.154,0.07,2.233-0.558,3.237
		c-0.628,1.005-1.516,1.643-2.663,1.914c-1.146,0.271-2.211,0.1-3.192-0.514S80.288,23.39,80.034,22.243z M85.947,18.02
		c-0.639-0.4-1.304-0.424-1.994-0.072c-0.691,0.352-1.285,0.926-1.783,1.723c-0.337,0.538-0.581,1.099-0.734,1.682
		c-0.152,0.583-0.158,1.167-0.016,1.75s0.47,1.035,0.983,1.355c0.632,0.396,1.299,0.416,2.001,0.062
		c0.703-0.354,1.301-0.926,1.795-1.715c0.345-0.553,0.595-1.118,0.749-1.695c0.154-0.578,0.158-1.154,0.012-1.73
		C86.812,18.803,86.476,18.35,85.947,18.02z"/>
	<path fill="#888888" d="M97.032,29.134c0.328-0.305,0.547-0.568,0.654-0.787c0.045-0.102,0.004-0.264-0.123-0.487
		c-0.126-0.223-0.237-0.387-0.333-0.489c-0.023-0.026,0.008-0.082,0.095-0.169c0.087-0.086,0.152-0.132,0.194-0.136
		c0.595,0.728,0.949,1.153,1.062,1.275c0.155,0.167,0.366,0.373,0.633,0.616c0.266,0.244,0.429,0.397,0.488,0.461
		c-0.013,0.036-0.057,0.088-0.131,0.158c-0.105,0.098-0.17,0.134-0.194,0.108c-0.083-0.09-0.234-0.207-0.454-0.35
		s-0.396-0.206-0.531-0.189c-0.232,0.085-0.523,0.289-0.87,0.611l-3.526,3.273c-0.224,0.207-0.646,0.623-1.268,1.248
		c-0.049-0.003-0.127-0.062-0.233-0.178c-0.096-0.103-0.12-0.272-0.073-0.507l1.352-8.397l-3.769,3.498
		c-0.372,0.346-0.603,0.607-0.691,0.786c-0.044,0.101,0.002,0.279,0.141,0.534c0.138,0.254,0.246,0.424,0.323,0.507
		c0.019,0.019-0.015,0.071-0.099,0.155c-0.084,0.083-0.147,0.133-0.19,0.149c-0.679-0.806-1.032-1.225-1.062-1.257
		c-0.161-0.174-0.367-0.38-0.618-0.62c-0.251-0.24-0.419-0.398-0.503-0.476c0.001-0.049,0.042-0.11,0.123-0.186
		c0.099-0.092,0.16-0.125,0.185-0.1c0.102,0.109,0.261,0.234,0.477,0.374c0.217,0.14,0.396,0.192,0.536,0.158
		c0.19-0.057,0.48-0.266,0.871-0.629l3.647-3.386c0.335-0.311,0.528-0.556,0.581-0.736c0.02-0.066-0.043-0.214-0.188-0.445
		c-0.146-0.231-0.259-0.391-0.343-0.481c-0.023-0.026,0.01-0.083,0.1-0.173c0.09-0.09,0.159-0.133,0.208-0.13
		c0.596,0.704,0.935,1.1,1.019,1.19c0.196,0.212,0.48,0.487,0.852,0.825c-0.11,0.329-0.233,0.859-0.369,1.59
		c-0.136,0.73-0.3,1.711-0.491,2.941s-0.328,2.076-0.41,2.535c0.086-0.057,0.22-0.168,0.399-0.335L97.032,29.134z"/>
	<path fill="#888888" d="M103.382,35.364c0.259,0.533,0.477,0.966,0.653,1.299s0.414,0.758,0.712,1.275
		c0.299,0.517,0.535,0.932,0.712,1.246c0.103,0.193,0.281,0.441,0.537,0.742l-1.599,1.131c-0.081-0.027-0.163-0.117-0.245-0.272
		c-0.032-0.062-0.034-0.11-0.005-0.146c0.353-0.327,0.556-0.618,0.607-0.873c0.051-0.255-0.024-0.573-0.226-0.953
		c-0.382-0.72-0.646-1.062-0.789-1.026c-0.254,0.045-0.623,0.197-1.109,0.455l-4.049,2.148c-0.403,0.214-0.71,0.421-0.92,0.622
		c-0.048,0.036-0.047,0.169,0.004,0.4c0.051,0.231,0.095,0.381,0.132,0.451c0.017,0.031-0.043,0.082-0.178,0.153
		c-0.074,0.04-0.139,0.064-0.191,0.072c-0.046-0.105-0.114-0.26-0.204-0.465s-0.175-0.394-0.256-0.564s-0.162-0.333-0.244-0.488
		c-0.111-0.209-0.275-0.492-0.493-0.848c-0.218-0.356-0.353-0.575-0.405-0.656c0.013-0.047,0.064-0.094,0.154-0.142
		c0.135-0.071,0.21-0.092,0.227-0.061c0.05,0.093,0.152,0.225,0.31,0.394c0.157,0.17,0.271,0.25,0.344,0.242
		c0.235-0.045,0.562-0.179,0.98-0.401l4.06-2.154c0.621-0.329,0.965-0.556,1.032-0.682c0.095-0.129-0.037-0.531-0.395-1.205
		c-0.201-0.379-0.423-0.62-0.663-0.72c-0.24-0.101-0.593-0.103-1.059-0.004c-0.049,0.016-0.092-0.011-0.129-0.081
		c-0.078-0.147-0.102-0.264-0.07-0.35l1.822-0.684c0.105,0.38,0.21,0.667,0.312,0.861C102.913,34.404,103.123,34.831,103.382,35.364
		z"/>
	<path fill="#888888" d="M108.653,48.962l-5.854,4.197c-0.3,0.205-0.57,0.403-0.813,0.594c-0.111,0.08-0.179,0.24-0.201,0.479
		s-0.021,0.411,0.002,0.513c0.008,0.034-0.062,0.068-0.211,0.103c-0.099,0.023-0.162,0.029-0.191,0.018
		c-0.188-1.036-0.289-1.58-0.301-1.631c-0.014-0.06-0.168-0.609-0.461-1.648c0.024-0.042,0.097-0.077,0.217-0.104
		c0.119-0.028,0.183-0.025,0.19,0.01c0.024,0.103,0.082,0.237,0.173,0.405s0.174,0.261,0.248,0.28
		c0.055,0.014,0.111,0.014,0.169,0.001c0.165-0.039,0.431-0.186,0.797-0.442l1.046-0.716c0.024-0.042,0.034-0.076,0.028-0.101
		c-0.047-0.277-0.124-0.646-0.231-1.108c-0.107-0.461-0.232-0.945-0.377-1.452c-0.012-0.051-0.034-0.073-0.067-0.065l-1.263-0.22
		c-0.467-0.062-0.753-0.081-0.86-0.056s-0.179,0.091-0.215,0.198c-0.031,0.088-0.046,0.233-0.042,0.435
		c0.004,0.202,0.014,0.337,0.029,0.405c-0.003,0.027-0.058,0.054-0.164,0.079c-0.107,0.025-0.188,0.035-0.241,0.029
		c-0.01-0.043-0.044-0.247-0.103-0.611c-0.059-0.365-0.114-0.658-0.166-0.88c-0.052-0.222-0.123-0.482-0.214-0.781
		c-0.091-0.299-0.155-0.511-0.193-0.637c0.024-0.042,0.082-0.073,0.173-0.094c0.148-0.035,0.225-0.043,0.229-0.026
		c0.024,0.103,0.098,0.259,0.22,0.469c0.123,0.21,0.236,0.334,0.341,0.373c0.285,0.104,0.645,0.192,1.078,0.263l6.118,1.089
		c0.541,0.081,0.874,0.17,1.001,0.267c0.073,0.055,0.119,0.121,0.137,0.197C108.693,48.854,108.685,48.91,108.653,48.962z
		 M103.695,48.494c0.045,0.305,0.104,0.615,0.178,0.931c0.069,0.299,0.163,0.646,0.281,1.042l0.056,0.014l2.247-1.549l-2.718-0.476
		C103.706,48.465,103.691,48.477,103.695,48.494z"/>
	<path fill="#888888" d="M103.705,64.937c-0.11-0.003-0.437-0.076-0.979-0.222c-0.543-0.145-0.83-0.252-0.862-0.323
		c-0.337-0.771-0.49-1.792-0.459-3.063c0.027-1.157,0.462-2.134,1.302-2.929c0.841-0.795,1.828-1.18,2.962-1.152
		c1.201,0.029,2.221,0.47,3.06,1.324s1.244,1.89,1.214,3.108c-0.023,0.991-0.163,2.022-0.417,3.096
		c-0.01,0.025-0.287,0.045-0.833,0.059c-0.547,0.013-0.888,0.018-1.022,0.015c-0.127-0.003-0.188-0.109-0.184-0.32
		c0.002-0.053,0.02-0.113,0.056-0.183c0.153-0.031,0.312-0.092,0.474-0.18c0.163-0.088,0.349-0.222,0.557-0.4
		c0.207-0.18,0.381-0.447,0.521-0.804s0.216-0.771,0.227-1.244c0.021-0.86-0.306-1.536-0.979-2.031
		c-0.674-0.494-1.488-0.753-2.444-0.776c-1.066-0.026-1.977,0.222-2.729,0.743c-0.754,0.521-1.142,1.273-1.166,2.255
		c-0.019,0.78,0.203,1.404,0.666,1.871c0.116,0.117,0.272,0.224,0.469,0.321c0.196,0.097,0.362,0.171,0.496,0.222
		c0.135,0.052,0.201,0.086,0.201,0.104C103.824,64.732,103.782,64.903,103.705,64.937z"/>
	<path fill="#888888" d="M108.479,71.785c-0.177,0.565-0.314,1.029-0.414,1.394c-0.1,0.363-0.219,0.835-0.355,1.416
		c-0.138,0.581-0.249,1.046-0.336,1.395c-0.058,0.212-0.098,0.515-0.117,0.909l-1.939-0.272c-0.041-0.075-0.038-0.196,0.008-0.366
		c0.019-0.067,0.051-0.104,0.096-0.109c0.481,0.004,0.829-0.069,1.041-0.22c0.213-0.151,0.376-0.434,0.489-0.848
		c0.216-0.787,0.259-1.217,0.129-1.288c-0.216-0.141-0.589-0.284-1.12-0.43l-4.42-1.211c-0.44-0.121-0.806-0.18-1.097-0.178
		c-0.059-0.007-0.149,0.091-0.271,0.294c-0.122,0.203-0.193,0.343-0.214,0.419c-0.01,0.033-0.088,0.03-0.234-0.01
		c-0.082-0.022-0.145-0.049-0.188-0.079c0.038-0.107,0.095-0.267,0.17-0.479c0.075-0.211,0.143-0.406,0.2-0.586
		s0.11-0.354,0.156-0.523c0.062-0.229,0.137-0.547,0.223-0.955s0.137-0.66,0.154-0.756c0.042-0.024,0.112-0.023,0.21,0.003
		c0.146,0.041,0.216,0.078,0.206,0.111c-0.027,0.102-0.043,0.269-0.044,0.499c-0.003,0.231,0.025,0.369,0.084,0.412
		c0.202,0.128,0.531,0.255,0.988,0.38l4.433,1.215c0.678,0.186,1.084,0.256,1.219,0.211c0.157-0.029,0.337-0.412,0.539-1.148
		c0.113-0.414,0.117-0.74,0.011-0.979c-0.105-0.238-0.361-0.48-0.768-0.729c-0.047-0.022-0.06-0.071-0.039-0.147
		c0.045-0.16,0.107-0.262,0.188-0.303l1.795,0.751c-0.184,0.35-0.304,0.631-0.362,0.842
		C108.796,70.765,108.655,71.22,108.479,71.785z"/>
	<path fill="#888888" d="M97.826,83.051c0.342-0.075,0.657-0.02,0.948,0.166c0.291,0.187,0.476,0.45,0.554,0.794
		c0.078,0.343,0.024,0.66-0.162,0.951c-0.186,0.291-0.45,0.472-0.792,0.542c-0.343,0.07-0.659,0.013-0.95-0.173
		c-0.291-0.187-0.475-0.448-0.552-0.787c-0.077-0.338-0.022-0.653,0.163-0.944C97.222,83.309,97.485,83.126,97.826,83.051z"/>
	<path fill="#888888" d="M86.731,94.925c-0.074-0.081-0.247-0.367-0.519-0.858s-0.394-0.773-0.364-0.846
		c0.322-0.777,0.953-1.596,1.891-2.454c0.854-0.782,1.858-1.146,3.015-1.091c1.155,0.055,2.116,0.5,2.883,1.337
		c0.812,0.886,1.2,1.927,1.166,3.123s-0.501,2.206-1.4,3.029c-0.73,0.669-1.57,1.284-2.521,1.844
		c-0.025,0.012-0.231-0.175-0.62-0.56c-0.388-0.385-0.628-0.628-0.719-0.728c-0.086-0.094-0.052-0.211,0.104-0.354
		c0.039-0.035,0.096-0.064,0.171-0.087c0.128,0.089,0.281,0.161,0.457,0.218c0.177,0.057,0.401,0.098,0.675,0.123
		c0.272,0.025,0.586-0.035,0.94-0.182c0.354-0.146,0.705-0.379,1.054-0.698c0.635-0.581,0.896-1.285,0.785-2.113
		s-0.488-1.596-1.135-2.301c-0.72-0.786-1.529-1.271-2.427-1.452c-0.898-0.183-1.709,0.059-2.434,0.722
		c-0.575,0.527-0.871,1.119-0.888,1.777c-0.004,0.164,0.027,0.351,0.094,0.56s0.128,0.379,0.184,0.512s0.077,0.205,0.064,0.217
		C86.961,94.87,86.81,94.958,86.731,94.925z"/>
	<path fill="#888888" d="M82.84,96.124c1.124,0.347,1.967,1.041,2.529,2.084s0.681,2.13,0.354,3.263
		c-0.325,1.133-0.998,1.974-2.017,2.523c-1.019,0.549-2.093,0.65-3.222,0.303c-1.13-0.349-1.976-1.044-2.538-2.087
		s-0.678-2.129-0.346-3.26c0.331-1.131,1.007-1.972,2.025-2.521C80.646,95.88,81.717,95.778,82.84,96.124z M83.585,103.353
		c0.664-0.357,1.014-0.924,1.05-1.698s-0.169-1.574-0.615-2.401c-0.302-0.559-0.668-1.049-1.099-1.47
		c-0.432-0.422-0.937-0.714-1.514-0.879c-0.576-0.165-1.132-0.104-1.664,0.184c-0.656,0.354-1.004,0.924-1.043,1.709
		c-0.04,0.786,0.161,1.589,0.604,2.408c0.31,0.573,0.677,1.07,1.103,1.489c0.426,0.42,0.925,0.708,1.498,0.866
		C82.477,103.718,83.037,103.648,83.585,103.353z"/>
	<path fill="#888888" d="M68.446,107.47c0.102,0.437,0.221,0.757,0.358,0.96c0.065,0.089,0.227,0.134,0.483,0.135
		s0.454-0.015,0.591-0.046c0.034-0.008,0.067,0.047,0.099,0.166c0.032,0.118,0.039,0.197,0.021,0.236
		c-0.928,0.154-1.472,0.251-1.635,0.288c-0.222,0.052-0.505,0.133-0.848,0.243c-0.344,0.11-0.559,0.175-0.644,0.195
		c-0.025-0.029-0.049-0.093-0.072-0.192c-0.032-0.14-0.031-0.214,0.003-0.222c0.119-0.028,0.296-0.102,0.529-0.221
		c0.233-0.12,0.376-0.242,0.428-0.367c0.043-0.244,0.01-0.598-0.098-1.059l-1.09-4.687c-0.068-0.297-0.22-0.87-0.453-1.72
		c0.026-0.041,0.116-0.079,0.271-0.115c0.137-0.031,0.295,0.031,0.476,0.189l6.617,5.344l-1.164-5.008
		c-0.115-0.495-0.228-0.825-0.338-0.99c-0.065-0.089-0.243-0.138-0.533-0.144c-0.29-0.007-0.49,0.003-0.601,0.029
		c-0.026,0.006-0.055-0.049-0.086-0.163c-0.03-0.114-0.042-0.194-0.035-0.239c1.037-0.189,1.576-0.288,1.619-0.298
		c0.23-0.054,0.512-0.131,0.845-0.229s0.554-0.166,0.662-0.199c0.042,0.024,0.075,0.091,0.101,0.198
		c0.03,0.132,0.029,0.201-0.005,0.209c-0.146,0.034-0.333,0.11-0.562,0.229c-0.229,0.118-0.363,0.247-0.403,0.387
		c-0.045,0.193-0.007,0.55,0.113,1.069l1.127,4.847c0.104,0.445,0.221,0.735,0.351,0.87c0.048,0.05,0.208,0.069,0.479,0.058
		c0.272-0.011,0.468-0.03,0.588-0.058c0.034-0.009,0.067,0.049,0.101,0.172c0.033,0.122,0.036,0.204,0.01,0.245
		c-0.906,0.167-1.419,0.265-1.539,0.293c-0.282,0.065-0.661,0.175-1.139,0.33c-0.231-0.26-0.63-0.63-1.196-1.11
		s-1.337-1.11-2.31-1.888s-1.639-1.315-1.996-1.614c0.006,0.103,0.036,0.273,0.092,0.513L68.446,107.47z"/>
	<path fill="#888888" d="M59.903,109.881c-0.591-0.04-1.075-0.065-1.452-0.077s-0.864-0.016-1.46-0.013
		c-0.597,0.002-1.075,0.003-1.435,0c-0.219-0.007-0.522,0.026-0.911,0.099l-0.19-1.949c0.063-0.058,0.183-0.083,0.358-0.077
		c0.07,0.002,0.113,0.024,0.129,0.067c0.109,0.469,0.261,0.789,0.458,0.96c0.197,0.171,0.51,0.264,0.939,0.276
		c0.815,0.025,1.243-0.033,1.282-0.176c0.087-0.243,0.138-0.64,0.155-1.189l0.142-4.581c0.014-0.456-0.014-0.826-0.084-1.107
		c-0.007-0.06-0.123-0.124-0.349-0.195c-0.226-0.07-0.378-0.106-0.458-0.109c-0.035-0.001-0.05-0.077-0.045-0.229
		c0.002-0.085,0.014-0.152,0.033-0.202c0.114,0.012,0.282,0.03,0.505,0.054s0.429,0.043,0.617,0.057
		c0.188,0.015,0.37,0.024,0.545,0.03c0.237,0.007,0.563,0.004,0.98-0.008c0.417-0.013,0.674-0.021,0.771-0.027
		c0.034,0.035,0.049,0.104,0.046,0.204c-0.005,0.152-0.025,0.229-0.06,0.228c-0.105-0.004-0.271,0.021-0.496,0.073
		c-0.225,0.053-0.352,0.112-0.38,0.179c-0.077,0.227-0.123,0.576-0.138,1.05l-0.142,4.594c-0.021,0.702,0.005,1.113,0.081,1.234
		c0.066,0.146,0.48,0.23,1.242,0.255c0.43,0.013,0.748-0.06,0.954-0.219c0.207-0.158,0.383-0.465,0.528-0.917
		c0.011-0.051,0.056-0.074,0.134-0.072c0.167,0.005,0.28,0.042,0.339,0.112l-0.309,1.921c-0.384-0.097-0.685-0.148-0.903-0.155
		C60.97,109.949,60.495,109.92,59.903,109.881z"/>
	<path fill="#888888" d="M45.469,107.729l-0.751-7.164c-0.029-0.362-0.067-0.695-0.114-1.001c-0.014-0.137-0.12-0.273-0.317-0.412
		c-0.197-0.138-0.346-0.222-0.446-0.252c-0.034-0.01-0.029-0.088,0.015-0.233c0.029-0.098,0.056-0.156,0.08-0.176
		c0.994,0.35,1.517,0.531,1.567,0.546c0.059,0.018,0.612,0.156,1.661,0.415c0.024,0.042,0.019,0.122-0.017,0.24
		c-0.035,0.117-0.069,0.171-0.103,0.161c-0.101-0.03-0.247-0.047-0.438-0.051s-0.313,0.021-0.366,0.076
		c-0.04,0.042-0.068,0.091-0.085,0.147c-0.048,0.162-0.052,0.466-0.01,0.911l0.104,1.263c0.024,0.042,0.048,0.067,0.074,0.075
		c0.264,0.096,0.623,0.212,1.077,0.347c0.454,0.135,0.937,0.266,1.448,0.391c0.05,0.016,0.081,0.007,0.09-0.026l0.816-0.988
		c0.285-0.375,0.443-0.614,0.475-0.72c0.031-0.105,0.009-0.201-0.066-0.285c-0.061-0.071-0.18-0.155-0.357-0.252
		s-0.299-0.155-0.366-0.175c-0.023-0.016-0.019-0.076,0.013-0.182s0.062-0.181,0.094-0.224c0.042,0.013,0.236,0.083,0.582,0.213
		c0.346,0.129,0.628,0.227,0.846,0.291c0.219,0.065,0.48,0.132,0.785,0.2s0.521,0.118,0.649,0.147
		c0.024,0.042,0.022,0.107-0.004,0.197c-0.043,0.146-0.074,0.217-0.09,0.211c-0.101-0.029-0.273-0.043-0.516-0.041
		c-0.243,0.003-0.408,0.04-0.493,0.112c-0.232,0.195-0.486,0.465-0.761,0.807l-3.974,4.777c-0.338,0.43-0.581,0.676-0.728,0.737
		c-0.084,0.037-0.164,0.044-0.239,0.021C45.543,107.817,45.499,107.781,45.469,107.729z M48.328,103.652
		c-0.287-0.112-0.586-0.214-0.897-0.307c-0.294-0.088-0.642-0.178-1.044-0.271l-0.04,0.041l0.234,2.719l1.758-2.126
		C48.349,103.676,48.345,103.657,48.328,103.652z"/>
	<path fill="#888888" d="M34.035,95.5c0.057-0.095,0.283-0.341,0.678-0.739c0.396-0.399,0.632-0.595,0.709-0.588
		c0.837,0.092,1.799,0.467,2.887,1.125c0.99,0.6,1.622,1.462,1.894,2.587c0.272,1.124,0.115,2.172-0.473,3.142
		c-0.622,1.028-1.512,1.694-2.67,1.997c-1.158,0.304-2.258,0.14-3.3-0.492c-0.848-0.513-1.674-1.146-2.478-1.901
		c-0.018-0.021,0.103-0.271,0.363-0.752s0.425-0.779,0.496-0.895c0.065-0.108,0.188-0.108,0.369,0.001
		c0.045,0.027,0.089,0.073,0.131,0.139c-0.049,0.148-0.075,0.315-0.08,0.5c-0.004,0.186,0.02,0.413,0.072,0.682
		c0.052,0.27,0.198,0.553,0.438,0.852s0.562,0.57,0.967,0.815c0.735,0.445,1.485,0.499,2.249,0.16
		c0.764-0.339,1.394-0.918,1.889-1.735c0.552-0.912,0.79-1.825,0.712-2.738c-0.078-0.912-0.537-1.623-1.377-2.132
		c-0.667-0.404-1.319-0.522-1.955-0.353c-0.159,0.042-0.329,0.124-0.511,0.247c-0.182,0.122-0.328,0.229-0.439,0.319
		s-0.175,0.132-0.19,0.123C34.152,95.704,34.025,95.583,34.035,95.5z"/>
	<path fill="#888888" d="M25.753,96.267c-0.403-0.434-0.738-0.784-1.004-1.051c-0.266-0.267-0.618-0.604-1.054-1.011
		c-0.436-0.407-0.784-0.735-1.044-0.983c-0.155-0.155-0.398-0.34-0.731-0.553l1.198-1.55c0.085,0.002,0.19,0.065,0.314,0.189
		c0.049,0.049,0.065,0.095,0.048,0.138c-0.243,0.416-0.351,0.753-0.326,1.013c0.026,0.259,0.191,0.541,0.494,0.845
		c0.576,0.577,0.928,0.827,1.054,0.751c0.23-0.118,0.539-0.371,0.928-0.76l3.243-3.238c0.323-0.323,0.556-0.611,0.698-0.864
		c0.036-0.048-0.004-0.175-0.121-0.381c-0.116-0.207-0.202-0.338-0.258-0.394c-0.025-0.024,0.017-0.091,0.125-0.198
		c0.06-0.061,0.114-0.102,0.162-0.125c0.075,0.086,0.185,0.215,0.331,0.385s0.283,0.325,0.41,0.465
		c0.127,0.139,0.252,0.271,0.376,0.395c0.167,0.168,0.407,0.391,0.719,0.667c0.312,0.277,0.506,0.446,0.58,0.509
		c0,0.049-0.035,0.109-0.107,0.181c-0.107,0.107-0.174,0.149-0.199,0.124c-0.074-0.074-0.211-0.17-0.412-0.286
		c-0.2-0.116-0.333-0.16-0.399-0.131c-0.211,0.112-0.484,0.335-0.82,0.67l-3.252,3.247c-0.497,0.497-0.759,0.814-0.788,0.954
		c-0.052,0.151,0.191,0.497,0.73,1.037c0.303,0.304,0.585,0.469,0.844,0.495s0.597-0.075,1.013-0.306
		c0.042-0.029,0.091-0.017,0.147,0.039c0.118,0.118,0.175,0.223,0.17,0.314l-1.542,1.187c-0.213-0.333-0.396-0.577-0.552-0.732
		C26.482,97.048,26.156,96.7,25.753,96.267z"/>
	<path fill="#888888" d="M21.233,81.436c-0.103,0.334-0.308,0.582-0.613,0.743c-0.306,0.161-0.626,0.19-0.963,0.089
		s-0.586-0.305-0.747-0.61s-0.188-0.625-0.08-0.957c0.108-0.333,0.314-0.579,0.62-0.74c0.306-0.161,0.625-0.191,0.957-0.092
		c0.332,0.101,0.579,0.304,0.74,0.608C21.308,80.782,21.336,81.102,21.233,81.436z"/>
	<path fill="#888888" d="M16.415,65.927c0.107-0.024,0.442-0.032,1.003-0.024c0.562,0.009,0.867,0.043,0.915,0.104
		c0.515,0.666,0.912,1.619,1.192,2.859c0.255,1.129,0.072,2.182-0.549,3.158s-1.485,1.59-2.591,1.84
		c-1.172,0.265-2.269,0.086-3.291-0.538c-1.021-0.623-1.667-1.529-1.935-2.718c-0.218-0.967-0.335-2.002-0.35-3.104
		c0.002-0.027,0.267-0.114,0.793-0.26s0.856-0.233,0.988-0.264c0.124-0.028,0.209,0.061,0.255,0.266
		c0.011,0.052,0.009,0.115-0.009,0.191c-0.141,0.067-0.279,0.164-0.416,0.289c-0.136,0.125-0.284,0.301-0.441,0.524
		c-0.158,0.225-0.261,0.526-0.31,0.906s-0.021,0.801,0.083,1.263c0.189,0.838,0.671,1.415,1.445,1.729
		c0.774,0.315,1.627,0.367,2.561,0.157c1.04-0.235,1.862-0.697,2.465-1.387c0.604-0.689,0.797-1.513,0.581-2.471
		c-0.172-0.762-0.539-1.312-1.102-1.652c-0.141-0.085-0.318-0.151-0.532-0.197s-0.393-0.077-0.536-0.095
		c-0.143-0.017-0.216-0.034-0.22-0.052C16.349,66.153,16.349,65.979,16.415,65.927z"/>
	<path fill="#888888" d="M17.31,61.927c-0.858,0.804-1.879,1.191-3.063,1.162s-2.188-0.466-3.009-1.312
		c-0.822-0.844-1.218-1.845-1.19-3.002s0.474-2.14,1.336-2.947c0.862-0.808,1.886-1.197,3.07-1.168
		c1.185,0.029,2.186,0.468,3.002,1.317c0.817,0.849,1.212,1.852,1.184,3.009S18.167,61.123,17.31,61.927z M10.664,58.987
		c-0.019,0.754,0.299,1.339,0.954,1.754c0.655,0.415,1.451,0.634,2.391,0.657c0.634,0.016,1.242-0.059,1.821-0.225
		c0.58-0.166,1.084-0.458,1.514-0.877c0.43-0.419,0.651-0.932,0.667-1.537c0.018-0.745-0.304-1.33-0.967-1.754
		s-1.459-0.647-2.39-0.67c-0.652-0.016-1.265,0.057-1.84,0.218c-0.576,0.162-1.074,0.452-1.495,0.872S10.679,58.365,10.664,58.987z"
		/>
	<path fill="#888888" d="M14.583,43.803c-0.43-0.128-0.767-0.182-1.011-0.164c-0.11,0.013-0.229,0.131-0.357,0.354
		s-0.212,0.401-0.252,0.536c-0.01,0.034-0.075,0.035-0.193,0.004s-0.191-0.063-0.216-0.099c0.324-0.882,0.51-1.403,0.558-1.563
		c0.065-0.219,0.135-0.504,0.209-0.857s0.124-0.572,0.148-0.656c0.038-0.007,0.105,0.004,0.202,0.033
		c0.138,0.041,0.202,0.079,0.192,0.112c-0.035,0.118-0.058,0.308-0.07,0.569c-0.012,0.262,0.024,0.446,0.107,0.553
		c0.191,0.158,0.515,0.304,0.969,0.439l4.612,1.372c0.292,0.087,0.865,0.239,1.718,0.457c0.022,0.043,0.011,0.141-0.034,0.292
		c-0.04,0.135-0.173,0.242-0.4,0.32l-7.917,3.107l4.928,1.466c0.487,0.145,0.829,0.21,1.028,0.196
		c0.11-0.013,0.239-0.144,0.388-0.393c0.149-0.248,0.24-0.427,0.272-0.537c0.008-0.025,0.069-0.023,0.184,0.007
		s0.19,0.059,0.226,0.087c-0.349,0.994-0.529,1.513-0.542,1.555c-0.067,0.227-0.14,0.509-0.219,0.847
		c-0.079,0.338-0.13,0.563-0.154,0.675c-0.042,0.024-0.116,0.02-0.222-0.011c-0.13-0.039-0.19-0.075-0.18-0.108
		c0.043-0.143,0.069-0.343,0.08-0.601c0.01-0.258-0.035-0.438-0.137-0.542c-0.146-0.134-0.474-0.278-0.985-0.43l-4.77-1.419
		c-0.438-0.13-0.748-0.172-0.929-0.125c-0.067,0.017-0.163,0.146-0.288,0.388c-0.125,0.242-0.205,0.422-0.24,0.539
		c-0.01,0.034-0.076,0.035-0.199,0.002c-0.123-0.032-0.196-0.069-0.218-0.113c0.303-0.871,0.472-1.364,0.507-1.482
		c0.083-0.277,0.175-0.662,0.277-1.153c0.339-0.072,0.858-0.236,1.557-0.491c0.698-0.254,1.625-0.612,2.783-1.073
		c1.157-0.461,1.954-0.773,2.391-0.936c-0.092-0.046-0.256-0.104-0.491-0.174L14.583,43.803z"/>
	<path fill="#888888" d="M16.733,35.165c0.328-0.493,0.591-0.9,0.788-1.222c0.198-0.321,0.444-0.741,0.738-1.26
		c0.294-0.519,0.532-0.934,0.713-1.245c0.115-0.187,0.237-0.466,0.367-0.84l1.786,0.805c0.018,0.083-0.019,0.2-0.11,0.349
		c-0.037,0.06-0.078,0.086-0.123,0.079c-0.461-0.139-0.814-0.166-1.061-0.081c-0.247,0.085-0.482,0.311-0.707,0.677
		c-0.427,0.695-0.589,1.095-0.484,1.2c0.168,0.196,0.486,0.438,0.955,0.726l3.904,2.4c0.39,0.239,0.724,0.398,1.003,0.478
		c0.055,0.024,0.169-0.045,0.343-0.206s0.281-0.275,0.322-0.342c0.019-0.03,0.093-0.005,0.222,0.075
		c0.072,0.044,0.125,0.087,0.159,0.129c-0.067,0.093-0.166,0.23-0.297,0.412c-0.132,0.182-0.25,0.351-0.356,0.506
		c-0.106,0.157-0.205,0.309-0.297,0.458c-0.124,0.202-0.284,0.487-0.48,0.855c-0.197,0.368-0.317,0.595-0.36,0.682
		c-0.047,0.012-0.114-0.008-0.201-0.062c-0.13-0.08-0.186-0.135-0.167-0.165c0.055-0.09,0.116-0.245,0.183-0.467
		s0.078-0.361,0.034-0.419c-0.158-0.179-0.439-0.393-0.843-0.641l-3.915-2.407c-0.599-0.368-0.969-0.549-1.111-0.544
		c-0.159-0.015-0.438,0.302-0.838,0.952c-0.225,0.366-0.32,0.678-0.285,0.937c0.035,0.258,0.213,0.563,0.533,0.915
		c0.039,0.034,0.037,0.084-0.004,0.152c-0.087,0.142-0.176,0.222-0.266,0.238l-1.513-1.224c0.274-0.285,0.469-0.52,0.583-0.707
		C16.143,36.055,16.405,35.658,16.733,35.165z"/>
	<path fill="#888888" d="M25.75,23.738l6.594,2.899c0.329,0.154,0.638,0.286,0.926,0.397c0.125,0.055,0.297,0.032,0.515-0.071
		s0.364-0.19,0.44-0.263c0.025-0.024,0.09,0.019,0.196,0.128c0.07,0.074,0.108,0.125,0.113,0.156c-0.796,0.69-1.213,1.054-1.25,1.09
		c-0.044,0.042-0.439,0.455-1.184,1.237c-0.049,0-0.115-0.045-0.2-0.133c-0.085-0.089-0.115-0.145-0.089-0.169
		c0.076-0.073,0.163-0.191,0.261-0.355c0.098-0.164,0.136-0.283,0.115-0.356c-0.016-0.055-0.044-0.104-0.085-0.146
		c-0.117-0.123-0.379-0.276-0.786-0.46l-1.148-0.535c-0.049,0-0.083,0.009-0.102,0.027c-0.214,0.182-0.493,0.437-0.835,0.764
		s-0.695,0.682-1.058,1.064c-0.038,0.036-0.045,0.067-0.022,0.091l0.455,1.199c0.184,0.433,0.313,0.689,0.39,0.769
		c0.076,0.08,0.169,0.107,0.28,0.083c0.092-0.018,0.224-0.08,0.396-0.186c0.172-0.105,0.283-0.183,0.334-0.231
		c0.025-0.012,0.075,0.022,0.151,0.102c0.076,0.079,0.125,0.144,0.147,0.192c-0.032,0.03-0.189,0.164-0.473,0.399
		c-0.284,0.236-0.508,0.434-0.673,0.591c-0.165,0.158-0.352,0.352-0.562,0.582c-0.21,0.23-0.36,0.394-0.45,0.491
		c-0.049,0-0.105-0.034-0.169-0.101c-0.105-0.11-0.152-0.171-0.139-0.184c0.076-0.073,0.173-0.215,0.291-0.428
		c0.119-0.212,0.167-0.374,0.147-0.483c-0.055-0.299-0.163-0.652-0.323-1.062l-2.18-5.82c-0.205-0.506-0.298-0.838-0.28-0.997
		c0.01-0.091,0.043-0.164,0.1-0.219C25.637,23.759,25.689,23.738,25.75,23.738z M27.873,28.242c0.24-0.193,0.477-0.402,0.711-0.627
		c0.222-0.212,0.473-0.47,0.753-0.773l-0.016-0.055l-2.478-1.144l0.976,2.581C27.843,28.248,27.86,28.254,27.873,28.242z"/>
	<path fill="#888888" d="M42.022,19.85c0.054,0.096,0.156,0.415,0.308,0.955c0.151,0.541,0.205,0.843,0.16,0.907
		c-0.492,0.683-1.293,1.334-2.403,1.955c-1.011,0.565-2.072,0.688-3.185,0.37c-1.112-0.319-1.945-0.973-2.499-1.963
		c-0.586-1.049-0.726-2.152-0.418-3.308s0.994-2.032,2.058-2.627c0.865-0.483,1.824-0.889,2.877-1.215
		c0.027-0.005,0.186,0.224,0.475,0.687c0.29,0.464,0.467,0.755,0.533,0.873c0.062,0.111,0.001,0.217-0.183,0.32
		c-0.046,0.025-0.108,0.041-0.186,0.045c-0.105-0.116-0.237-0.222-0.396-0.317s-0.368-0.187-0.628-0.274
		c-0.26-0.087-0.579-0.101-0.957-0.04s-0.773,0.207-1.187,0.438c-0.75,0.419-1.167,1.045-1.25,1.876
		c-0.083,0.832,0.109,1.665,0.576,2.5c0.521,0.931,1.197,1.588,2.029,1.971s1.677,0.335,2.534-0.144
		c0.681-0.381,1.105-0.889,1.272-1.526c0.042-0.159,0.054-0.348,0.038-0.566c-0.017-0.218-0.037-0.398-0.061-0.54
		s-0.028-0.217-0.013-0.226C41.786,19.851,41.954,19.801,42.022,19.85z"/>
	<path fill="#888888" d="M45.497,12.262c0.577-0.135,1.047-0.251,1.411-0.35c0.364-0.099,0.831-0.236,1.401-0.413
		c0.57-0.177,1.027-0.316,1.372-0.418c0.211-0.058,0.492-0.178,0.842-0.36l0.75,1.809c-0.043,0.073-0.15,0.133-0.319,0.179
		c-0.068,0.019-0.116,0.01-0.144-0.027c-0.24-0.417-0.479-0.679-0.717-0.785c-0.238-0.106-0.564-0.104-0.979,0.009
		c-0.787,0.213-1.179,0.395-1.175,0.542c-0.012,0.257,0.054,0.652,0.198,1.183l1.201,4.423c0.12,0.441,0.254,0.786,0.403,1.035
		c0.024,0.055,0.154,0.083,0.391,0.084s0.393-0.008,0.469-0.029c0.034-0.009,0.071,0.06,0.111,0.207
		c0.022,0.082,0.031,0.149,0.028,0.203c-0.112,0.021-0.279,0.054-0.499,0.096c-0.22,0.042-0.422,0.084-0.606,0.125
		c-0.184,0.042-0.361,0.085-0.53,0.131c-0.229,0.062-0.541,0.16-0.936,0.293c-0.396,0.133-0.639,0.217-0.729,0.25
		c-0.043-0.023-0.077-0.084-0.104-0.182c-0.04-0.147-0.043-0.225-0.009-0.234c0.102-0.028,0.253-0.099,0.453-0.215
		s0.304-0.21,0.312-0.282c0.007-0.239-0.05-0.587-0.175-1.044l-1.204-4.435c-0.184-0.678-0.33-1.064-0.437-1.158
		c-0.105-0.12-0.526-0.081-1.263,0.119c-0.415,0.113-0.698,0.275-0.849,0.487c-0.151,0.212-0.23,0.556-0.238,1.032
		c0.005,0.051-0.031,0.087-0.107,0.108c-0.161,0.043-0.28,0.041-0.357-0.008l-0.264-1.928c0.395-0.02,0.698-0.058,0.909-0.115
		C44.457,12.507,44.92,12.397,45.497,12.262z"/>
</g>
<polygon fill="none" stroke="#BF8465" stroke-linecap="round" stroke-linejoin="round" stroke-miterlimit="10" points="
	62.877,73.183 70.604,71.112 64.947,65.455 "/>
<rect x="63.857" y="54.823" transform="matrix(0.7071 -0.7071 0.7071 0.7071 -18.9726 71.843)" fill="none" stroke="#BF8465" stroke-linecap="round" stroke-linejoin="round" stroke-miterlimit="10" width="26.758" height="8"/>
<polygon fill="none" stroke="#BF8465" stroke-linecap="round" stroke-linejoin="round" stroke-miterlimit="10" points="
	70.604,71.112 64.947,65.455 77.564,52.839 81,40.5 50,40.5 39,80 70,80 73.197,68.519 "/>
<g>
	
		<line fill="none" stroke="#BF8465" stroke-linecap="round" stroke-linejoin="round" stroke-miterlimit="10" x1="53.9" y1="44.45" x2="74.9" y2="44.45"/>
	
		<line fill="none" stroke="#BF8465" stroke-linecap="round" stroke-linejoin="round" stroke-miterlimit="10" x1="52.8" y1="48.4" x2="73.8" y2="48.4"/>
	
		<line fill="none" stroke="#BF8465" stroke-linecap="round" stroke-linejoin="round" stroke-miterlimit="10" x1="51.7" y1="52.35" x2="62" y2="52.35"/>
</g>
</svg>
