<?xml version="1.0" encoding="utf-8"?>
<!-- Generator: Adobe Illustrator 21.1.0, SVG Export Plug-In . SVG Version: 6.00 Build 0)  -->
<svg version="1.0" id="레이어_1" xmlns="http://www.w3.org/2000/svg" xmlns:xlink="http://www.w3.org/1999/xlink" x="0px"
	 y="0px" viewBox="0 0 114.5 16.5" enable-background="new 0 0 114.5 16.5" xml:space="preserve">
<g>
	<path fill="#BF8465" d="M62.5,16.5c-19.801,0-61.639-4.954-62.059-5.003c-0.274-0.033-0.47-0.281-0.438-0.556
		c0.033-0.274,0.28-0.468,0.556-0.438c0.42,0.05,42.2,4.997,61.941,4.997c21.522,0,29.161-3.447,31.866-5.988
		c-3.383-2.413-4.219-5.124-3.794-6.924C90.949,0.992,92.262,0,94,0c1.622,0,2.86,0.69,3.487,1.944
		c0.955,1.91,0.332,4.797-1.587,7.356c-0.004,0.005-0.007,0.01-0.011,0.016c0.413,0.252,0.857,0.499,1.335,0.737
		C105.028,13.955,113.911,14,114,14c0.276,0,0.5,0.224,0.5,0.5S114.277,15,114,15c-0.091,0-9.211-0.046-17.224-4.053
		c-0.562-0.281-1.08-0.571-1.556-0.866C91.033,14.285,79.777,16.5,62.5,16.5z M94,1c-1.269,0-2.186,0.68-2.455,1.818
		c-0.379,1.606,0.615,3.911,3.505,5.948c0.017-0.022,0.034-0.044,0.05-0.065c1.667-2.224,2.268-4.759,1.493-6.309
		C96.138,1.481,95.241,1,94,1z"/>
</g>
</svg>
