<?xml version="1.0" encoding="utf-8"?>
<!-- Generator: Adobe Illustrator 21.1.0, SVG Export Plug-In . SVG Version: 6.00 Build 0)  -->
<svg version="1.0" id="레이어_1" xmlns="http://www.w3.org/2000/svg" xmlns:xlink="http://www.w3.org/1999/xlink" x="0px"
	 y="0px" viewBox="0 0 88 16.5" enable-background="new 0 0 88 16.5" xml:space="preserve">
<g>
	<path fill="#BF8465" d="M36,16.5c-19.842,0-35.484-4.475-35.639-4.52c-0.266-0.077-0.418-0.354-0.341-0.619
		c0.077-0.266,0.353-0.421,0.619-0.341C0.794,11.064,16.308,15.5,36,15.5c21.522,0,29.161-3.447,31.866-5.988
		c-3.383-2.413-4.219-5.124-3.794-6.924C64.449,0.992,65.762,0,67.5,0c1.622,0,2.86,0.69,3.487,1.944
		c0.955,1.91,0.332,4.797-1.587,7.356c-0.004,0.005-0.007,0.01-0.011,0.016c0.413,0.252,0.857,0.499,1.335,0.737
		C78.528,13.955,87.411,14,87.5,14c0.276,0,0.5,0.224,0.5,0.5S87.776,15,87.5,15c-0.091,0-9.211-0.046-17.224-4.053
		c-0.562-0.281-1.08-0.571-1.556-0.866C64.533,14.285,53.277,16.5,36,16.5z M67.5,1c-1.269,0-2.186,0.68-2.455,1.818
		c-0.379,1.606,0.615,3.911,3.505,5.948c0.017-0.022,0.034-0.044,0.05-0.065c1.667-2.224,2.268-4.759,1.493-6.309
		C69.638,1.481,68.741,1,67.5,1z"/>
</g>
</svg>
