<?xml version="1.0" encoding="utf-8"?>
<!-- Generator: Adobe Illustrator 21.1.0, SVG Export Plug-In . SVG Version: 6.00 Build 0)  -->
<svg version="1.0" id="레이어_1" xmlns="http://www.w3.org/2000/svg" xmlns:xlink="http://www.w3.org/1999/xlink" x="0px"
	 y="0px" viewBox="0 0 63.745 16.5" enable-background="new 0 0 63.745 16.5" xml:space="preserve">
<g>
	<path fill="#BF8465" d="M16.745,16.5c-5.247,0-10.731-0.311-16.3-0.924c-0.274-0.03-0.473-0.277-0.442-0.552
		c0.03-0.275,0.28-0.476,0.552-0.442c5.532,0.609,10.979,0.918,16.19,0.918c21.522,0,29.161-3.446,31.865-5.988
		c-3.383-2.413-4.219-5.123-3.793-6.924C45.193,0.991,46.508,0,48.245,0c1.622,0,2.86,0.69,3.487,1.944
		c0.955,1.909,0.332,4.797-1.587,7.355c-0.004,0.005-0.008,0.011-0.012,0.016c0.413,0.252,0.857,0.499,1.335,0.737
		c4.072,2.036,8.69,3.001,11.847,3.452c0.273,0.039,0.464,0.292,0.425,0.565c-0.04,0.274-0.3,0.456-0.565,0.425
		c-3.23-0.462-7.961-1.451-12.153-3.548c-0.562-0.281-1.08-0.57-1.556-0.866C45.278,14.285,34.023,16.5,16.745,16.5z M48.245,1
		c-1.269,0-2.187,0.68-2.455,1.817c-0.379,1.606,0.615,3.912,3.505,5.948c0.018-0.021,0.034-0.044,0.05-0.065
		c1.668-2.224,2.269-4.76,1.493-6.31C50.383,1.481,49.486,1,48.245,1z"/>
</g>
</svg>
